HIERARCHY
ROOT joint_Root
{
  OFFSET 0 0 0
  CHANNELS 6 Xposition Yposition Zposition Zrotation Xrotation Yrotation
  JOINT Hips
  {
    OFFSET 0 93.9241 -3
    CHANNELS 6 Xposition Yposition Zposition Zrotation Xrotation Yrotation
    JOINT Spine
    {
      OFFSET 15.7357 0 0
      CHANNELS 6 Xposition Yposition Zposition Zrotation Xrotation Yrotation
      JOINT Chest
      {
        OFFSET 8.98455 -0.406207 0
        CHANNELS 6 Xposition Yposition Zposition Zrotation Xrotation Yrotation
        JOINT Neck
        {
          OFFSET 16.3773 0 0
          CHANNELS 6 Xposition Yposition Zposition Zrotation Xrotation Yrotation
          JOINT Head
          {
            OFFSET 6.45672 0 0
            CHANNELS 6 Xposition Yposition Zposition Zrotation Xrotation Yrotation
            End Site
            {
              OFFSET 0 0 0
            }
          }
        }
        JOINT Shoulder_L
        {
          OFFSET 12.9942 -0.242716 4.98039
          CHANNELS 6 Xposition Yposition Zposition Zrotation Xrotation Yrotation
          JOINT UpperArm_L
          {
            OFFSET 5.34809 0 0
            CHANNELS 6 Xposition Yposition Zposition Zrotation Xrotation Yrotation
            JOINT LowerArm_L
            {
              OFFSET 24.3286 1.87007e-05 0
              CHANNELS 6 Xposition Yposition Zposition Zrotation Xrotation Yrotation
              JOINT Hand_L
              {
                OFFSET 22.2916 0 0
                CHANNELS 6 Xposition Yposition Zposition Zrotation Xrotation Yrotation
                End Site
                {
                  OFFSET 0 0 0
                }
              }
            }
          }
        }
        JOINT Shoulder_R
        {
          OFFSET 12.9945 -0.242716 -4.98039
          CHANNELS 6 Xposition Yposition Zposition Zrotation Xrotation Yrotation
          JOINT UpperArm_R
          {
            OFFSET -5.34813 0 0
            CHANNELS 6 Xposition Yposition Zposition Zrotation Xrotation Yrotation
            JOINT LowerArm_R
            {
              OFFSET -24.3289 0.000322201 0
              CHANNELS 6 Xposition Yposition Zposition Zrotation Xrotation Yrotation
              JOINT Hand_R
              {
                OFFSET -22.2915 -0.000108084 0
                CHANNELS 6 Xposition Yposition Zposition Zrotation Xrotation Yrotation
                End Site
                {
                  OFFSET 0 0 0
                }
              }
            }
          }
        }
      }
    }
    JOINT UpperLeg_L
    {
      OFFSET -2.19248 -6.46944 0
      CHANNELS 6 Xposition Yposition Zposition Zrotation Xrotation Yrotation
      JOINT LowerLeg_L
      {
        OFFSET 39.0811 0 -1.23785e-05
        CHANNELS 6 Xposition Yposition Zposition Zrotation Xrotation Yrotation
        JOINT Foot_L
        {
          OFFSET 40.9854 0 -1.26872e-05
          CHANNELS 6 Xposition Yposition Zposition Zrotation Xrotation Yrotation
          JOINT Toes_L
          {
            OFFSET 11.7543 0 0
            CHANNELS 6 Xposition Yposition Zposition Zrotation Xrotation Yrotation
            End Site
            {
              OFFSET 0 0 0
            }
          }
        }
      }
    }
    JOINT UpperLeg_R
    {
      OFFSET -2.19251 6.46944 0
      CHANNELS 6 Xposition Yposition Zposition Zrotation Xrotation Yrotation
      JOINT LowerLeg_R
      {
        OFFSET -39.0811 -0.00228153 -0.0401928
        CHANNELS 6 Xposition Yposition Zposition Zrotation Xrotation Yrotation
        JOINT Foot_R
        {
          OFFSET -40.9854 0 0
          CHANNELS 6 Xposition Yposition Zposition Zrotation Xrotation Yrotation
          JOINT Toes_R
          {
            OFFSET -11.7543 0 0
            CHANNELS 6 Xposition Yposition Zposition Zrotation Xrotation Yrotation
            End Site
            {
              OFFSET 0 0 0
            }
          }
        }
      }
    }
  }
}
MOTION
Frames:	9
Frame Time:	0.0333333
0 0 0 0 0 -0 -0.574073 92.413 -6.71228 90.6281 -12.4256 1.27345 15.7357 5.1072e-06 -5.51765e-07 121.838 86.3344 -121.786 8.98455 -0.406207 -4.3199e-07 -1.54042 3.86234 0.15495 16.3773 -1.3905e-06 -6.99897e-07 1.51012 1.90593 -1.7879 6.45672 -1.25837e-06 -1.02172e-07 17.1189 -2.34482 -3.77914 12.9942 -0.242716 4.98039 -90.9438 3.57812 -90.2139 5.34809 -7.22636e-06 -6.2814e-07 -71.9602 -12.7005 9.81607 24.3286 1.87007e-05 4.90208e-06 3.21013 10.6209 -16.925 22.2916 -9.88446e-07 4.63217e-06 11.0114 5.32321 -0.58822 12.9945 -0.242716 -4.98039 89.2247 4.73376 -95.6869 -5.34813 -1.25947e-06 -3.79883e-06 -71.3651 -3.35284 12.4918 -24.3289 0.000322201 -8.65921e-06 4.27123 13.3859 -17.884 -22.2915 -0.000108084 -4.47941e-06 13.4126 5.39898 -2.90447 -2.19248 -6.46944 -1.22534e-07 176.916 -2.84048 -14.2716 39.0811 -6.73843e-06 -1.23785e-05 0.0147151 -0.0168279 18.3058 40.9854 -6.48686e-06 -1.26872e-05 3.01811 -6.43202 -53.3471 11.7543 -2.30145e-07 3.05095e-06 0.0856369 -0.0965267 -17.5179 -2.19251 6.46944 -1.45247e-06 -174.568 12.232 172.557 -39.0811 -0.00228153 -0.0401928 0.0644953 -0.132312 19.1842 -40.9854 7.72618e-06 5.99936e-06 3.90278 -14.965 -62.4555 -11.7543 -5.6619e-06 -5.58687e-06 0.0279484 -0.0290366 -16.7983 
0 0 0 0 0 -0 -0.523858 92.464 -6.45615 90.8724 -12.4392 1.19254 15.7357 5.1072e-06 -5.51765e-07 121.787 86.396 -121.8 8.98455 -0.406207 -4.3199e-07 -1.6398 3.79703 0.030013 16.3773 -1.3905e-06 -6.99897e-07 1.40153 1.962 -1.83884 6.45672 -1.25837e-06 -1.02172e-07 17.131 -2.2064 -3.89513 12.9942 -0.242716 4.98039 -90.9633 3.67907 -90.316 5.34809 -7.22636e-06 -6.2814e-07 -71.6305 -12.7275 9.77416 24.3286 1.87007e-05 4.90208e-06 3.47159 11.0108 -17.6211 22.2916 -9.88446e-07 4.63217e-06 11.522 5.33337 -0.883037 12.9945 -0.242716 -4.98039 89.194 4.92318 -95.6904 -5.34813 -1.25947e-06 -3.79883e-06 -71.2909 -3.14051 12.4408 -24.3289 0.000322201 -8.65921e-06 4.38041 13.627 -18.0152 -22.2915 -0.000108084 -4.47941e-06 13.5254 5.401 -2.97024 -2.19248 -6.46944 -1.22534e-07 176.603 -2.85433 -13.9613 39.0811 -6.73843e-06 -1.23785e-05 0.0192641 -0.0295468 17.7792 40.9854 -6.48686e-06 -1.26872e-05 3.09448 -6.40382 -53.2691 11.7543 -2.30145e-07 3.05095e-06 0.0823264 -0.0927254 -17.4811 -2.19251 6.46944 -1.45247e-06 -174.917 12.6325 172.67 -39.0811 -0.00228153 -0.0401928 0.0619197 -0.126551 19.0462 -40.9854 7.72618e-06 5.99936e-06 3.82569 -14.5366 -62.5686 -11.7543 -5.6619e-06 -5.58687e-06 0.0218038 -0.0226328 -16.7488 
0 0 0 0 0 -0 -0.505193 92.4857 -6.20544 91.0329 -12.2874 1.12858 15.7357 5.1072e-06 -5.51765e-07 121.138 86.4649 -121.175 8.98455 -0.406207 -4.3199e-07 -1.71422 3.65829 -0.0197055 16.3773 -1.3905e-06 -6.99897e-07 1.23259 2.01601 -1.89647 6.45672 -1.25837e-06 -1.02172e-07 17.1836 -2.12595 -4.05775 12.9942 -0.242716 4.98039 -90.9691 3.74594 -90.4836 5.34809 -7.22636e-06 -6.2814e-07 -71.3568 -12.6591 9.74449 24.3286 1.87007e-05 4.90208e-06 3.75341 11.4941 -18.2222 22.2916 -9.88446e-07 4.63217e-06 12.2475 5.34426 -1.20554 12.9945 -0.242716 -4.98039 89.1679 5.04968 -95.6297 -5.34813 -1.25947e-06 -3.79883e-06 -71.1965 -3.13289 12.4314 -24.3289 0.000322201 -8.65921e-06 4.46538 13.7343 -18.2114 -22.2915 -0.000108084 -4.47941e-06 13.977 5.40898 -3.23147 -2.19248 -6.46944 -1.22534e-07 176.338 -3.33723 -13.7997 39.0811 -6.73843e-06 -1.23785e-05 0.0241497 -0.0431679 17.5777 40.9854 -6.48686e-06 -1.26872e-05 3.22609 -5.77025 -53.3597 11.7543 -2.30145e-07 3.05095e-06 0.084034 -0.0946853 -17.5001 -2.19251 6.46944 -1.45247e-06 -175.151 12.9197 172.747 -39.0811 -0.00228153 -0.0401928 0.0619103 -0.125787 19.032 -40.9854 7.72618e-06 5.99936e-06 3.71799 -14.3833 -62.7388 -11.7543 -5.6619e-06 -5.58687e-06 0.0229131 -0.0237809 -16.7577 
0 0 0 0 0 -0 -0.492348 92.4998 -5.94294 91.154 -12.1496 1.20721 15.7357 5.1072e-06 -5.51765e-07 120.001 86.4758 -120.042 8.98455 -0.406207 -4.3199e-07 -1.66155 3.52682 -0.0309455 16.3773 -1.3905e-06 -6.99897e-07 1.12575 2.04011 -1.97954 6.45672 -1.25837e-06 -1.02172e-07 17.0917 -2.04062 -4.17691 12.9942 -0.242716 4.98039 -90.9707 3.78194 -90.5942 5.34809 -7.22636e-06 -6.2814e-07 -71.1566 -12.5769 9.63201 24.3286 1.87007e-05 4.90208e-06 3.9489 11.7982 -18.6553 22.2916 -9.88446e-07 4.63217e-06 13.0595 5.34717 -1.29266 12.9945 -0.242716 -4.98039 89.1558 5.11299 -95.6114 -5.34813 -1.25947e-06 -3.79883e-06 -71.0988 -3.19394 12.4381 -24.3289 0.000322201 -8.65921e-06 4.53303 13.6669 -18.5533 -22.2915 -0.000108084 -4.47941e-06 14.3255 5.41 -3.26523 -2.19248 -6.46944 -1.22534e-07 176.145 -3.63087 -13.532 39.0811 -6.73843e-06 -1.23785e-05 0.0286727 -0.0558225 17.5024 40.9854 -6.48686e-06 -1.26872e-05 3.31346 -5.36357 -53.5202 11.7543 -2.30145e-07 3.05095e-06 0.0794623 -0.0894578 -17.4495 -2.19251 6.46944 -1.45247e-06 -175.378 13.0077 172.998 -39.0811 -0.00228153 -0.0401928 0.0600955 -0.120484 19.0282 -40.9854 7.72618e-06 5.99936e-06 3.56028 -14.4686 -62.9261 -11.7543 -5.6619e-06 -5.58687e-06 0.0141298 -0.0146482 -16.6871 
0 0 0 0 0 -0 -0.467005 92.5134 -5.69969 91.264 -12.0255 1.20699 15.7357 5.1072e-06 -5.51765e-07 119.419 86.5016 -119.467 8.98455 -0.406207 -4.3199e-07 -1.67084 3.43992 -0.0461022 16.3773 -1.3905e-06 -6.99897e-07 0.967803 2.069 -2.03263 6.45672 -1.25837e-06 -1.02172e-07 17.1423 -1.97371 -4.25786 12.9942 -0.242716 4.98039 -90.9627 3.77173 -90.6712 5.34809 -7.22636e-06 -6.2814e-07 -71.0062 -12.5354 9.51041 24.3286 1.87007e-05 4.90208e-06 4.13603 12.0964 -19.0383 22.2916 -9.88446e-07 4.63217e-06 13.5998 5.34662 -1.27618 12.9945 -0.242716 -4.98039 89.1431 5.17039 -95.5769 -5.34813 -1.25947e-06 -3.79883e-06 -70.9697 -3.18108 12.489 -24.3289 0.000322201 -8.65921e-06 4.69429 13.8141 -18.9822 -22.2915 -0.000108084 -4.47941e-06 14.4326 5.41148 -3.31419 -2.19248 -6.46944 -1.22534e-07 175.964 -3.71245 -13.3474 39.0811 -6.73843e-06 -1.23785e-05 0.0320613 -0.0658898 17.4095 40.9854 -6.48686e-06 -1.26872e-05 3.38511 -5.15958 -53.644 11.7543 -2.30145e-07 3.05095e-06 0.0802315 -0.0903329 -17.458 -2.19251 6.46944 -1.45247e-06 -175.58 13.0449 173.142 -39.0811 -0.00228153 -0.0401928 0.0599784 -0.120577 19.0327 -40.9854 7.72618e-06 5.99936e-06 3.41729 -14.4993 -63.085 -11.7543 -5.6619e-06 -5.58687e-06 0.0114946 -0.0119119 -16.666 
0 0 0 0 0 -0 -0.465691 92.5217 -5.47064 91.337 -11.9033 1.15132 15.7357 5.1072e-06 -5.51765e-07 119.179 86.5505 -119.223 8.98455 -0.406207 -4.3199e-07 -1.742 3.36644 -0.037764 16.3773 -1.3905e-06 -6.99897e-07 0.820852 2.09042 -2.06164 6.45672 -1.25837e-06 -1.02172e-07 17.2549 -1.91543 -4.34245 12.9942 -0.242716 4.98039 -90.955 3.76865 -90.77 5.34809 -7.22636e-06 -6.2814e-07 -70.8674 -12.5201 9.53292 24.3286 1.87007e-05 4.90208e-06 4.44782 12.6562 -19.5456 22.2916 -9.88446e-07 4.63217e-06 14.062 5.34654 -1.27332 12.9945 -0.242716 -4.98039 89.1341 5.23045 -95.5863 -5.34813 -1.25947e-06 -3.79883e-06 -70.8512 -3.00302 12.641 -24.3289 0.000322201 -8.65921e-06 4.95169 14.1239 -19.551 -22.2915 -0.000108084 -4.47941e-06 14.9753 5.41534 -3.44243 -2.19248 -6.46944 -1.22534e-07 175.827 -3.97615 -13.2671 39.0811 -6.73843e-06 -1.23785e-05 0.0360459 -0.0769614 17.4148 40.9854 -6.48686e-06 -1.26872e-05 3.45513 -4.7816 -53.8196 11.7543 -2.30145e-07 3.05095e-06 0.0784244 -0.0882751 -17.438 -2.19251 6.46944 -1.45247e-06 -175.723 13.3034 173.258 -39.0811 -0.00228153 -0.0401928 0.0584279 -0.118761 19.0059 -40.9854 7.72618e-06 5.99936e-06 3.32583 -14.3429 -63.25 -11.7543 -5.6619e-06 -5.58687e-06 0.0121846 -0.0126274 -16.6714 
0 0 0 0 0 -0 -0.482709 92.5271 -5.236 91.3925 -11.8289 1.11132 15.7357 5.1072e-06 -5.51765e-07 119.028 86.5885 -119.078 8.98455 -0.406207 -4.3199e-07 -1.79953 3.31419 -0.0478188 16.3773 -1.3905e-06 -6.99897e-07 0.693658 2.11931 -2.02904 6.45672 -1.25837e-06 -1.02172e-07 17.2815 -1.85189 -4.41109 12.9942 -0.242716 4.98039 -90.9403 3.7262 -90.8268 5.34809 -7.22636e-06 -6.2814e-07 -70.7863 -12.4508 9.5956 24.3286 1.87007e-05 4.90208e-06 4.75432 13.1417 -20.0927 22.2916 -9.88446e-07 4.63217e-06 14.9922 5.3526 -1.45555 12.9945 -0.242716 -4.98039 89.1246 5.30124 -95.609 -5.34813 -1.25947e-06 -3.79883e-06 -70.7409 -2.87851 12.7172 -24.3289 0.000322201 -8.65921e-06 5.15632 14.359 -19.9987 -22.2915 -0.000108084 -4.47941e-06 15.8478 5.4236 -3.71978 -2.19248 -6.46944 -1.22534e-07 175.736 -4.17386 -13.1834 39.0811 -6.73843e-06 -1.23785e-05 0.0402755 -0.0891451 17.4782 40.9854 -6.48686e-06 -1.26872e-05 3.49051 -4.48852 -54.0329 11.7543 -2.30145e-07 3.05095e-06 0.0819404 -0.0923046 -17.477 -2.19251 6.46944 -1.45247e-06 -175.848 13.7245 173.406 -39.0811 -0.00228153 -0.0401928 0.0572547 -0.116657 18.9643 -40.9854 7.72618e-06 5.99936e-06 3.27353 -14.0201 -63.4217 -11.7543 -5.6619e-06 -5.58687e-06 0.00901816 -0.00934012 -16.646 
0 0 0 0 0 -0 -0.500297 92.512 -4.95983 91.4571 -11.8789 1.27855 15.7357 5.1072e-06 -5.51765e-07 118.892 86.5489 -118.95 8.98455 -0.406207 -4.3199e-07 -1.72218 3.33875 -0.0651631 16.3773 -1.3905e-06 -6.99897e-07 0.59016 2.17943 -2.03474 6.45672 -1.25837e-06 -1.02172e-07 17.2886 -1.83684 -4.43622 12.9942 -0.242716 4.98039 -90.9303 3.70426 -90.8917 5.34809 -7.22636e-06 -6.2814e-07 -70.7234 -12.3227 9.72528 24.3286 1.87007e-05 4.90208e-06 5.05897 13.557 -20.6888 22.2916 -9.88446e-07 4.63217e-06 16.0268 5.35786 -1.61341 12.9945 -0.242716 -4.98039 89.1184 5.35363 -95.6346 -5.34813 -1.25947e-06 -3.79883e-06 -70.6218 -2.92792 12.7365 -24.3289 0.000322201 -8.65921e-06 5.40026 14.6569 -20.4893 -22.2915 -0.000108084 -4.47941e-06 16.5306 5.42521 -3.77523 -2.19248 -6.46944 -1.22534e-07 175.665 -4.23255 -12.9746 39.0811 -6.73843e-06 -1.23785e-05 0.0452823 -0.101504 17.76 40.9854 -6.48686e-06 -1.26872e-05 3.48319 -4.49238 -54.376 11.7543 -2.30145e-07 3.05095e-06 0.0899403 -0.101464 -17.5656 -2.19251 6.46944 -1.45247e-06 -176.036 13.908 173.701 -39.0811 -0.00228153 -0.0401928 0.0594408 -0.115241 19.1054 -40.9854 7.72618e-06 5.99936e-06 3.17371 -13.7869 -63.6953 -11.7543 -5.6619e-06 -5.58687e-06 0.00782462 -0.0080869 -16.6363 
0 0 0 0 0 -0 -0.52111 92.4847 -4.67833 91.4908 -11.9394 1.50102 15.7357 5.1072e-06 -5.51765e-07 118.571 86.5198 -118.629 8.98455 -0.406207 -4.3199e-07 -1.65229 3.33271 -0.0674631 16.3773 -1.3905e-06 -6.99897e-07 0.519738 2.21276 -2.03073 6.45672 -1.25837e-06 -1.02172e-07 17.3851 -1.78396 -4.45052 12.9942 -0.242716 4.98039 -90.9247 3.69064 -90.9242 5.34809 -7.22636e-06 -6.2814e-07 -70.6758 -12.2854 9.92409 24.3286 1.87007e-05 4.90208e-06 5.4472 14.1908 -21.2548 22.2916 -9.88446e-07 4.63217e-06 17.0551 5.35952 -1.66551 12.9945 -0.242716 -4.98039 89.12 5.36277 -95.6669 -5.34813 -1.25947e-06 -3.79883e-06 -70.5657 -2.9203 12.6643 -24.3289 0.000322201 -8.65921e-06 5.64452 14.9987 -20.9056 -22.2915 -0.000108084 -4.47941e-06 17.3657 5.42543 -3.78326 -2.19248 -6.46944 -1.22534e-07 175.629 -4.44655 -12.769 39.0811 -6.73843e-06 -1.23785e-05 0.0519164 -0.117522 18.1764 40.9854 -6.48686e-06 -1.26872e-05 3.48201 -4.35445 -54.7985 11.7543 -2.30145e-07 3.05095e-06 0.0832934 -0.0938372 -17.4919 -2.19251 6.46944 -1.45247e-06 -176.213 13.9771 174.039 -39.0811 -0.00228153 -0.0401928 0.0589439 -0.1158 19.3011 -40.9854 7.72618e-06 5.99936e-06 3.04277 -13.6725 -63.9975 -11.7543 -5.6619e-06 -5.58687e-06 0.00422179 -0.00437095 -16.6077 
